<svg width="17" height="16" viewBox="0 0 17 16" fill="none" xmlns="http://www.w3.org/2000/svg">
<path d="M12.0306 8.5306L7.0306 13.5306C6.8897 13.6715 6.69861 13.7506 6.49935 13.7506C6.30009 13.7506 6.10899 13.6715 5.9681 13.5306C5.8272 13.3897 5.74805 13.1986 5.74805 12.9993C5.74805 12.8001 5.8272 12.609 5.9681 12.4681L10.4375 7.99997L5.96935 3.5306C5.89958 3.46083 5.84424 3.37801 5.80649 3.28686C5.76873 3.19571 5.7493 3.09801 5.7493 2.99935C5.7493 2.90069 5.76873 2.80299 5.80649 2.71184C5.84424 2.62069 5.89958 2.53786 5.96935 2.4681C6.03911 2.39833 6.12194 2.34299 6.21309 2.30524C6.30424 2.26748 6.40194 2.24805 6.5006 2.24805C6.59926 2.24805 6.69696 2.26748 6.78811 2.30524C6.87926 2.34299 6.96208 2.39833 7.03185 2.4681L12.0318 7.4681C12.1017 7.53786 12.1571 7.62072 12.1948 7.71193C12.2326 7.80313 12.2519 7.9009 12.2518 7.99961C12.2517 8.09832 12.2321 8.19604 12.1941 8.28715C12.1562 8.37827 12.1006 8.461 12.0306 8.5306Z" fill="#262A2E"/>
</svg>
