<svg width="16" height="17" viewBox="0 0 16 17" fill="none" xmlns="http://www.w3.org/2000/svg">
<path d="M7.46934 12.0306L2.46934 7.0306C2.32844 6.8897 2.24929 6.6986 2.24929 6.49935C2.24929 6.30009 2.32844 6.10899 2.46934 5.9681C2.61024 5.8272 2.80133 5.74805 3.00059 5.74805C3.19985 5.74805 3.39094 5.8272 3.53184 5.9681L7.99997 10.4375L12.4693 5.96935C12.5391 5.89958 12.6219 5.84424 12.7131 5.80649C12.8042 5.76873 12.9019 5.7493 13.0006 5.7493C13.0993 5.7493 13.1969 5.76873 13.2881 5.80649C13.3793 5.84424 13.4621 5.89958 13.5318 5.96935C13.6016 6.03911 13.6569 6.12194 13.6947 6.21309C13.7325 6.30424 13.7519 6.40194 13.7519 6.5006C13.7519 6.59926 13.7325 6.69696 13.6947 6.78811C13.6569 6.87926 13.6016 6.96208 13.5318 7.03185L8.53184 12.0318C8.46208 12.1017 8.37922 12.1571 8.28801 12.1948C8.1968 12.2326 8.09904 12.2519 8.00033 12.2518C7.90162 12.2517 7.8039 12.2321 7.71278 12.1941C7.62166 12.1562 7.53893 12.1006 7.46934 12.0306Z" fill="#262A2E"/>
</svg>
