<svg width="49" height="49" viewBox="0 0 49 49" fill="none" xmlns="http://www.w3.org/2000/svg">
<g filter="url(#filter0_d_490_25886)">
<mask id="path-1-outside-1_490_25886" maskUnits="userSpaceOnUse" x="6" y="4" width="37" height="37" fill="black">
<rect fill="white" x="6" y="4" width="37" height="37"/>
<path d="M22 6C29.732 6 36 12.268 36 20C36 23.1369 34.9672 26.032 33.2246 28.3662L39.999 35.1406L37.1406 38L30.3662 31.2256C28.0321 32.968 25.1367 34 22 34C14.268 34 8 27.732 8 20C8 12.268 14.268 6 22 6Z"/>
</mask>
<path d="M22 6C29.732 6 36 12.268 36 20C36 23.1369 34.9672 26.032 33.2246 28.3662L39.999 35.1406L37.1406 38L30.3662 31.2256C28.0321 32.968 25.1367 34 22 34C14.268 34 8 27.732 8 20C8 12.268 14.268 6 22 6Z" fill="#363B3E"/>
<path d="M33.2246 28.3662L31.622 27.1697L30.5866 28.5566L31.8104 29.7804L33.2246 28.3662ZM39.999 35.1406L41.4135 36.5546L42.8272 35.1404L41.4132 33.7264L39.999 35.1406ZM37.1406 38L35.7264 39.4142L37.1409 40.8287L38.5551 39.414L37.1406 38ZM30.3662 31.2256L31.7804 29.8114L30.5567 28.5876L29.1698 29.6229L30.3662 31.2256ZM22 6V8C28.6274 8 34 13.3726 34 20H36H38C38 11.1634 30.8366 4 22 4V6ZM36 20H34C34 22.6905 33.1158 25.1688 31.622 27.1697L33.2246 28.3662L34.8273 29.5627C36.8186 26.8953 38 23.5833 38 20H36ZM33.2246 28.3662L31.8104 29.7804L38.5848 36.5548L39.999 35.1406L41.4132 33.7264L34.6388 26.952L33.2246 28.3662ZM39.999 35.1406L38.5846 33.7267L35.7262 36.586L37.1406 38L38.5551 39.414L41.4135 36.5546L39.999 35.1406ZM37.1406 38L38.5548 36.5858L31.7804 29.8114L30.3662 31.2256L28.952 32.6398L35.7264 39.4142L37.1406 38ZM30.3662 31.2256L29.1698 29.6229C27.1692 31.1163 24.6907 32 22 32V34V36C25.5827 36 28.895 34.8196 31.5626 32.8283L30.3662 31.2256ZM22 34V32C15.3726 32 10 26.6274 10 20H8H6C6 28.8366 13.1634 36 22 36V34ZM8 20H10C10 13.3726 15.3726 8 22 8V6V4C13.1634 4 6 11.1634 6 20H8Z" fill="white" fill-opacity="0.8" mask="url(#path-1-outside-1_490_25886)"/>
</g>
<path d="M22.0215 10.043C27.5323 10.0431 32 14.5107 32 20.0215C31.9999 25.5322 27.5322 29.9999 22.0215 30C16.5107 30 12.0431 25.5323 12.043 20.0215C12.043 14.5106 16.5106 10.043 22.0215 10.043ZM20 18H16V22H20V26H24V22H28V18H24V14H20V18Z" fill="white"/>
<defs>
<filter id="filter0_d_490_25886" x="0" y="0" width="48.8271" height="48.8286" filterUnits="userSpaceOnUse" color-interpolation-filters="sRGB">
<feFlood flood-opacity="0" result="BackgroundImageFix"/>
<feColorMatrix in="SourceAlpha" type="matrix" values="0 0 0 0 0 0 0 0 0 0 0 0 0 0 0 0 0 0 127 0" result="hardAlpha"/>
<feOffset dy="2"/>
<feGaussianBlur stdDeviation="3"/>
<feColorMatrix type="matrix" values="0 0 0 0 0 0 0 0 0 0 0 0 0 0 0 0 0 0 0.25 0"/>
<feBlend mode="normal" in2="BackgroundImageFix" result="effect1_dropShadow_490_25886"/>
<feBlend mode="normal" in="SourceGraphic" in2="effect1_dropShadow_490_25886" result="shape"/>
</filter>
</defs>
</svg>
