<svg width="16" height="17" viewBox="0 0 16 17" fill="none" xmlns="http://www.w3.org/2000/svg">
<path d="M14.5 8.50028V13.5003C14.5 14.1633 14.2366 14.7992 13.7678 15.2681C13.2989 15.7369 12.663 16.0003 12 16.0003H8.5C8.36739 16.0003 8.24022 15.9476 8.14645 15.8538C8.05268 15.7601 8 15.6329 8 15.5003C8 15.3677 8.05268 15.2405 8.14645 15.1467C8.24022 15.053 8.36739 15.0003 8.5 15.0003H12C12.3978 15.0003 12.7794 14.8422 13.0607 14.5609C13.342 14.2796 13.5 13.8981 13.5 13.5003H12C11.6022 13.5003 11.2206 13.3422 10.9393 13.0609C10.658 12.7796 10.5 12.3981 10.5 12.0003V9.50028C10.5 9.10246 10.658 8.72093 10.9393 8.43962C11.2206 8.15832 11.6022 8.00028 12 8.00028H13.4781C13.3835 6.96087 12.9951 5.96983 12.3582 5.14294C11.7214 4.31604 10.8624 3.68741 9.88164 3.33049C8.90085 2.97357 7.83875 2.90308 6.8194 3.12726C5.80005 3.35145 4.86553 3.86104 4.125 4.59653C3.20416 5.50523 2.6362 6.71158 2.5225 8.00028H4C4.39783 8.00028 4.77936 8.15832 5.06066 8.43962C5.34197 8.72093 5.5 9.10246 5.5 9.50028V12.0003C5.5 12.3981 5.34197 12.7796 5.06066 13.0609C4.77936 13.3422 4.39783 13.5003 4 13.5003H3C2.60218 13.5003 2.22064 13.3422 1.93934 13.0609C1.65804 12.7796 1.5 12.3981 1.5 12.0003V8.50028C1.5014 7.21272 1.88476 5.95451 2.60156 4.88492C3.31836 3.81534 4.33638 2.98245 5.52674 2.49169C6.71711 2.00093 8.02632 1.87435 9.28866 2.12799C10.551 2.38163 11.7097 3.00407 12.6181 3.91653C13.2179 4.51922 13.6929 5.23434 14.0158 6.0209C14.3387 6.80746 14.5033 7.65002 14.5 8.50028Z" fill="#2B3990"/>
</svg>
