<svg width="32" height="32" viewBox="0 0 32 32" fill="none" xmlns="http://www.w3.org/2000/svg">
<path d="M23.7075 8.29271C23.8005 8.38559 23.8742 8.49588 23.9246 8.61727C23.9749 8.73867 24.0008 8.8688 24.0008 9.00021C24.0008 9.13163 23.9749 9.26176 23.9246 9.38315C23.8742 9.50455 23.8005 9.61484 23.7075 9.70771L21.7075 11.7077C21.5199 11.8954 21.2654 12.0008 21 12.0008C20.7346 12.0008 20.4801 11.8954 20.2925 11.7077C20.1049 11.5201 19.9995 11.2656 19.9995 11.0002C19.9995 10.7348 20.1049 10.4804 20.2925 10.2927L22.2925 8.29271C22.3854 8.19974 22.4957 8.12598 22.6171 8.07565C22.7385 8.02533 22.8686 7.99943 23 7.99943C23.1314 7.99943 23.2615 8.02533 23.3829 8.07565C23.5043 8.12598 23.6146 8.19974 23.7075 8.29271ZM28 9.00021C28.0019 9.65706 27.8733 10.3078 27.6218 10.9146C27.3704 11.5214 27.0009 12.0722 26.535 12.5352L23.535 15.5352C23.389 15.6814 23.2012 15.7788 22.9975 15.814C16.5613 16.919 5.81501 27.599 5.70751 27.7077C5.51987 27.8952 5.26544 28.0004 5.00019 28.0003C4.73494 28.0002 4.48061 27.8947 4.29313 27.7071C4.10566 27.5194 4.0004 27.265 4.00052 26.9998C4.00064 26.7345 4.10612 26.4802 4.29376 26.2927C4.50001 26.0915 15.0863 15.4102 16.1863 9.00021C16.2214 8.79655 16.3188 8.60877 16.465 8.46271L19.465 5.46271C20.1644 4.76352 21.0555 4.28743 22.0255 4.09467C22.9955 3.90192 24.0008 4.00114 24.9144 4.3798C25.828 4.75846 26.6088 5.39955 27.1581 6.22198C27.7073 7.04441 28.0003 8.01125 28 9.00021ZM26 9.00021C26.0015 8.4058 25.8263 7.82435 25.4968 7.32964C25.1672 6.83494 24.6981 6.44928 24.1491 6.22161C23.6 5.99394 22.9956 5.93452 22.4127 6.05089C21.8298 6.16726 21.2946 6.45417 20.875 6.87521L18.0963 9.66146C17.545 12.3052 15.7338 15.4352 13.66 18.3402C16.565 16.2665 19.695 14.4552 22.3388 13.904L25.125 11.1252C25.4042 10.8465 25.6253 10.5152 25.7755 10.1504C25.9257 9.78564 26.002 9.39469 26 9.00021Z" fill="#2B3990"/>
</svg>
