<svg width="32" height="32" viewBox="0 0 32 32" fill="none" xmlns="http://www.w3.org/2000/svg">
<path d="M27.96 8.26853L16.96 2.24978C16.6661 2.08738 16.3358 2.0022 16 2.0022C15.6642 2.0022 15.3339 2.08738 15.04 2.24978L4.04 8.27103C3.72586 8.44291 3.46363 8.69598 3.28069 9.00381C3.09775 9.31164 3.00081 9.66294 3 10.021V21.976C3.00081 22.3341 3.09775 22.6854 3.28069 22.9932C3.46363 23.3011 3.72586 23.5541 4.04 23.726L15.04 29.7473C15.3339 29.9097 15.6642 29.9949 16 29.9949C16.3358 29.9949 16.6661 29.9097 16.96 29.7473L27.96 23.726C28.2741 23.5541 28.5364 23.3011 28.7193 22.9932C28.9023 22.6854 28.9992 22.3341 29 21.976V10.0223C28.9999 9.66356 28.9032 9.31147 28.7203 9.00292C28.5373 8.69437 28.2747 8.44072 27.96 8.26853ZM16 3.99978L26.0425 9.49978L22.3213 11.5373L12.2775 6.03728L16 3.99978ZM16 14.9998L5.9575 9.49978L10.195 7.17978L20.2375 12.6798L16 14.9998ZM5 11.2498L15 16.7223V27.446L5 21.9773V11.2498ZM27 21.9723L17 27.446V16.7273L21 14.5385V18.9998C21 19.265 21.1054 19.5194 21.2929 19.7069C21.4804 19.8944 21.7348 19.9998 22 19.9998C22.2652 19.9998 22.5196 19.8944 22.7071 19.7069C22.8946 19.5194 23 19.265 23 18.9998V13.4435L27 11.2498V21.971V21.9723Z" fill="#2B3990"/>
</svg>
