<svg width="32" height="25" viewBox="0 0 32 25" fill="none" xmlns="http://www.w3.org/2000/svg">
<path d="M0 24.5V18.1842C0 16.2661 0.339181 14.231 1.01754 12.0789C1.7193 9.90351 2.72515 7.80994 4.03509 5.79825C5.36842 3.76316 6.97076 1.99707 8.8421 0.5L13.3333 4.14912C11.8596 6.25438 10.5731 8.45322 9.47368 10.7456C8.39766 13.0146 7.85965 15.4474 7.85965 18.0439V24.5H0ZM17.9649 24.5V18.1842C17.9649 16.2661 18.3041 14.231 18.9825 12.0789C19.6842 9.90351 20.6901 7.80994 22 5.79825C23.3333 3.76316 24.9357 1.99707 26.807 0.5L31.2982 4.14912C29.8246 6.25438 28.538 8.45322 27.4386 10.7456C26.3626 13.0146 25.8246 15.4474 25.8246 18.0439V24.5H17.9649Z" fill="#2B3990"/>
</svg>
