<svg width="21" height="21" viewBox="0 0 21 21" fill="none" xmlns="http://www.w3.org/2000/svg">
<path d="M12.0945 3.38278C12.1588 3.14266 12.3158 2.9379 12.531 2.81352C12.7463 2.68914 13.0021 2.65532 13.2422 2.7195C14.4542 3.03525 15.5601 3.6686 16.4457 4.55424C17.3314 5.43989 17.9647 6.54575 18.2805 7.75778C18.3152 7.8776 18.3257 8.00314 18.3113 8.12706C18.2968 8.25097 18.2578 8.37076 18.1965 8.47941C18.1352 8.58806 18.0529 8.68339 17.9543 8.7598C17.8557 8.83621 17.7428 8.89217 17.6223 8.92441C17.5018 8.95664 17.376 8.9645 17.2524 8.94752C17.1288 8.93054 17.0099 8.88907 16.9025 8.82553C16.7952 8.76199 16.7016 8.67766 16.6272 8.57749C16.5529 8.47731 16.4993 8.36331 16.4695 8.24215C16.2367 7.34935 15.77 6.53477 15.1176 5.88235C14.4652 5.22993 13.6506 4.76326 12.7578 4.53043C12.5177 4.46615 12.3129 4.30915 12.1886 4.09393C12.0642 3.87872 12.0304 3.62292 12.0945 3.38278ZM18.9258 14.2172C18.7768 15.3512 18.2201 16.3923 17.3597 17.146C16.4992 17.8996 15.3938 18.3142 14.25 18.3125C7.87423 18.3125 2.68751 13.1257 2.68751 6.74997C2.68573 5.60614 3.10039 4.50077 3.85402 3.64032C4.60765 2.77987 5.64873 2.22316 6.78282 2.07418C7.11697 2.03358 7.45532 2.1017 7.74773 2.26845C8.04013 2.43519 8.27105 2.6917 8.40626 2.99997L10.0555 6.682C10.0572 6.68682 10.0593 6.69152 10.0617 6.69606C10.1631 6.93295 10.2043 7.19123 10.1816 7.4479C10.159 7.70456 10.0733 7.95165 9.93204 8.16715C9.91194 8.19855 9.88975 8.22857 9.86563 8.257L8.37657 10.0312C8.92813 11.0343 9.97813 12.075 10.993 12.6257L12.7359 11.1414C12.7639 11.118 12.7931 11.096 12.8234 11.0757C13.0397 10.9306 13.2889 10.8421 13.5483 10.8184C13.8076 10.7946 14.0688 10.8364 14.3078 10.9398L14.3219 10.9461L18 12.5937C18.3082 12.729 18.5646 12.96 18.7314 13.2523C18.8981 13.5447 18.9663 13.883 18.9258 14.2172ZM17.0266 14.2125L13.7453 12.7429L11.993 14.2328C11.9654 14.2566 11.9365 14.2788 11.9063 14.2992C11.681 14.4485 11.4209 14.5369 11.1512 14.5557C10.8816 14.5744 10.6117 14.5229 10.368 14.4062C8.8461 13.6718 7.32969 12.1656 6.59376 10.6562C6.47672 10.4135 6.42443 10.1447 6.44195 9.87588C6.45947 9.60703 6.54622 9.34727 6.69376 9.12184C6.71412 9.09043 6.73657 9.06041 6.76094 9.032L8.25782 7.257L6.78751 3.97575C6.15579 4.11496 5.59068 4.46601 5.18596 4.97063C4.78124 5.47525 4.56125 6.1031 4.56251 6.74997C4.56561 9.3183 5.58725 11.7806 7.40333 13.5966C9.21942 15.4127 11.6817 16.4344 14.25 16.4375C14.8973 16.4393 15.5257 16.2195 16.0308 15.8147C16.5359 15.41 16.8873 14.8446 17.0266 14.2125ZM11.8774 7.48981C12.2607 7.61065 12.6093 7.82216 12.8936 8.1064C13.1778 8.39065 13.3893 8.73924 13.5102 9.12262C13.57 9.31284 13.6889 9.47903 13.8496 9.59704C14.0103 9.71506 14.2045 9.77875 14.4039 9.77887C14.4995 9.77876 14.5946 9.76427 14.6859 9.7359C14.9222 9.66116 15.1192 9.49593 15.234 9.27634C15.3488 9.05675 15.3719 8.80065 15.2984 8.56403C15.087 7.89276 14.7168 7.2824 14.2191 6.78475C13.7215 6.28711 13.1111 5.91686 12.4398 5.70543C12.3217 5.66579 12.1969 5.6501 12.0726 5.65928C11.9483 5.66845 11.8271 5.70231 11.7161 5.75887C11.605 5.81544 11.5064 5.89357 11.4259 5.9887C11.3454 6.08383 11.2847 6.19406 11.2473 6.31293C11.2099 6.4318 11.1966 6.55693 11.2081 6.68101C11.2197 6.80509 11.2558 6.92562 11.3145 7.03557C11.3732 7.14551 11.4531 7.24265 11.5498 7.32132C11.6464 7.39998 11.7578 7.45859 11.8774 7.49372V7.48981Z" fill="white"/>
</svg>
