<svg width="16" height="17" viewBox="0 0 16 17" fill="none" xmlns="http://www.w3.org/2000/svg">
<path d="M14.4925 11.4424C14.3811 12.2893 13.9651 13.0666 13.3224 13.6293C12.6797 14.1919 11.8542 14.5014 11 14.4999C6.03751 14.4999 2.00001 10.4624 2.00001 5.49987C1.99847 4.64568 2.30794 3.82014 2.87059 3.17743C3.43324 2.53473 4.21061 2.11882 5.05751 2.00737C5.27166 1.98122 5.48854 2.02504 5.67575 2.13227C5.86296 2.23951 6.01047 2.40441 6.09626 2.60237L7.41626 5.54925V5.55675C7.48194 5.70828 7.50906 5.87372 7.49521 6.0383C7.48136 6.20287 7.42696 6.36145 7.33688 6.49987C7.32563 6.51675 7.31376 6.53237 7.30126 6.548L6.00001 8.0905C6.46813 9.04175 7.46313 10.028 8.42688 10.4974L9.94813 9.203C9.96307 9.19044 9.97872 9.17875 9.99501 9.168C10.1333 9.07575 10.2924 9.01944 10.458 9.00416C10.6235 8.98888 10.7903 9.01512 10.9431 9.0805L10.9513 9.08425L13.8956 10.4036C14.0939 10.4891 14.2592 10.6365 14.3668 10.8237C14.4744 11.011 14.5185 11.228 14.4925 11.4424Z" fill="#2B3990"/>
</svg>
