<svg width="80" height="17" viewBox="0 0 80 17" fill="none" xmlns="http://www.w3.org/2000/svg">
<g clip-path="url(#clip0_490_14059)">
<path d="M14.8156 0.5H1.18125C0.528125 0.5 0 1.01563 0 1.65313V15.3438C0 15.9813 0.528125 16.5 1.18125 16.5H14.8156C15.4688 16.5 16 15.9813 16 15.3469V1.65313C16 1.01563 15.4688 0.5 14.8156 0.5ZM4.74687 14.1344H2.37188V6.49687H4.74687V14.1344ZM3.55938 5.45625C2.79688 5.45625 2.18125 4.84062 2.18125 4.08125C2.18125 3.32188 2.79688 2.70625 3.55938 2.70625C4.31875 2.70625 4.93437 3.32188 4.93437 4.08125C4.93437 4.8375 4.31875 5.45625 3.55938 5.45625ZM13.6344 14.1344H11.2625V10.4219C11.2625 9.5375 11.2469 8.39687 10.0281 8.39687C8.79375 8.39687 8.60625 9.3625 8.60625 10.3594V14.1344H6.2375V6.49687H8.5125V7.54063H8.54375C8.85938 6.94063 9.63438 6.30625 10.7875 6.30625C13.1906 6.30625 13.6344 7.8875 13.6344 9.94375V14.1344Z" fill="#2B3990"/>
</g>
<path d="M44.2175 1.76904H46.4665L41.5531 7.3847L47.3333 15.0264H42.8075L39.2627 10.3917L35.2066 15.0264H32.9563L38.2116 9.01977L32.6667 1.76904H37.3074L40.5116 6.00526L44.2175 1.76904ZM43.4282 13.6802H44.6744L36.6303 3.04446H35.293L43.4282 13.6802Z" fill="#2B3990"/>
<g clip-path="url(#clip1_490_14059)">
<path d="M72 1.94062C74.1375 1.94062 74.3906 1.95 75.2313 1.9875C76.0125 2.02187 76.4344 2.15313 76.7156 2.2625C77.0875 2.40625 77.3563 2.58125 77.6344 2.85938C77.9156 3.14062 78.0875 3.40625 78.2313 3.77813C78.3406 4.05938 78.4719 4.48438 78.5063 5.2625C78.5438 6.10625 78.5531 6.35938 78.5531 8.49375C78.5531 10.6313 78.5438 10.8844 78.5063 11.725C78.4719 12.5063 78.3406 12.9281 78.2313 13.2094C78.0875 13.5813 77.9125 13.85 77.6344 14.1281C77.3531 14.4094 77.0875 14.5813 76.7156 14.725C76.4344 14.8344 76.0094 14.9656 75.2313 15C74.3875 15.0375 74.1344 15.0469 72 15.0469C69.8625 15.0469 69.6094 15.0375 68.7688 15C67.9875 14.9656 67.5656 14.8344 67.2844 14.725C66.9125 14.5813 66.6438 14.4063 66.3656 14.1281C66.0844 13.8469 65.9125 13.5813 65.7688 13.2094C65.6594 12.9281 65.5281 12.5031 65.4938 11.725C65.4563 10.8813 65.4469 10.6281 65.4469 8.49375C65.4469 6.35625 65.4563 6.10313 65.4938 5.2625C65.5281 4.48125 65.6594 4.05938 65.7688 3.77813C65.9125 3.40625 66.0875 3.1375 66.3656 2.85938C66.6469 2.57812 66.9125 2.40625 67.2844 2.2625C67.5656 2.15313 67.9906 2.02187 68.7688 1.9875C69.6094 1.95 69.8625 1.94062 72 1.94062ZM72 0.5C69.8281 0.5 69.5563 0.509375 68.7031 0.546875C67.8531 0.584375 67.2688 0.721875 66.7625 0.91875C66.2344 1.125 65.7875 1.39688 65.3438 1.84375C64.8969 2.2875 64.625 2.73438 64.4188 3.25938C64.2219 3.76875 64.0844 4.35 64.0469 5.2C64.0094 6.05625 64 6.32812 64 8.5C64 10.6719 64.0094 10.9438 64.0469 11.7969C64.0844 12.6469 64.2219 13.2313 64.4188 13.7375C64.625 14.2656 64.8969 14.7125 65.3438 15.1562C65.7875 15.6 66.2344 15.875 66.7594 16.0781C67.2688 16.275 67.85 16.4125 68.7 16.45C69.5531 16.4875 69.825 16.4969 71.9969 16.4969C74.1688 16.4969 74.4406 16.4875 75.2938 16.45C76.1438 16.4125 76.7281 16.275 77.2344 16.0781C77.7594 15.875 78.2063 15.6 78.65 15.1562C79.0938 14.7125 79.3688 14.2656 79.5719 13.7406C79.7688 13.2313 79.9063 12.65 79.9438 11.8C79.9813 10.9469 79.9906 10.675 79.9906 8.50313C79.9906 6.33125 79.9813 6.05938 79.9438 5.20625C79.9063 4.35625 79.7688 3.77188 79.5719 3.26562C79.375 2.73438 79.1031 2.2875 78.6563 1.84375C78.2125 1.4 77.7656 1.125 77.2406 0.921875C76.7313 0.725 76.15 0.5875 75.3 0.55C74.4438 0.509375 74.1719 0.5 72 0.5Z" fill="#2B3990"/>
<path d="M72 4.39062C69.7313 4.39062 67.8906 6.23125 67.8906 8.5C67.8906 10.7688 69.7313 12.6094 72 12.6094C74.2688 12.6094 76.1094 10.7688 76.1094 8.5C76.1094 6.23125 74.2688 4.39062 72 4.39062ZM72 11.1656C70.5281 11.1656 69.3344 9.97188 69.3344 8.5C69.3344 7.02813 70.5281 5.83437 72 5.83437C73.4719 5.83437 74.6656 7.02813 74.6656 8.5C74.6656 9.97188 73.4719 11.1656 72 11.1656Z" fill="#2B3990"/>
<path d="M77.2312 4.22793C77.2312 4.75918 76.8 5.18731 76.2719 5.18731C75.7406 5.18731 75.3125 4.75606 75.3125 4.22793C75.3125 3.69668 75.7438 3.26855 76.2719 3.26855C76.8 3.26855 77.2312 3.69981 77.2312 4.22793Z" fill="#2B3990"/>
</g>
<defs>
<clipPath id="clip0_490_14059">
<rect width="16" height="16" fill="white" transform="translate(0 0.5)"/>
</clipPath>
<clipPath id="clip1_490_14059">
<rect width="16" height="16" fill="white" transform="translate(64 0.5)"/>
</clipPath>
</defs>
</svg>
